# Blender v2.76 (sub 0) OBJ File: 'demo-cube.blend'
# www.blender.org
mtllib demo-cube.mtl
o Cube
v 1.000000 -1.000000 -1.000000
v 1.000000 -1.000000 1.000000
v -1.000000 -1.000000 1.000000
v -1.000000 -1.000000 -1.000000
v 1.000000 1.000000 -0.999999
v -1.000000 1.000000 -1.000000
v 1.000000 1.000000 0.471936
v 1.000000 0.471935 1.000000
v -1.000000 0.471935 1.000000
v -1.000000 1.000000 0.471935
vn 0.000000 -1.000000 0.000000
vn -0.000000 -0.000000 1.000000
vn 0.000000 1.000000 0.000000
vn -1.000000 -0.000000 -0.000000
vn 0.000000 0.000000 -1.000000
vn -0.000000 0.707100 0.707100
vn 1.000000 0.000000 0.000000
usemtl Material
s off
f 1//1 2//1 3//1 4//1
f 2//2 8//2 9//2 3//2
f 5//3 6//3 10//3 7//3
f 3//4 9//4 10//4 6//4 4//4
f 5//5 1//5 4//5 6//5
f 7//6 10//6 9//6 8//6
f 1//7 5//7 7//7 8//7 2//7
